<svg width="16" height="17" viewBox="0 0 16 17" fill="none" xmlns="http://www.w3.org/2000/svg">
<path d="M14.8411 14.7299C14.4095 15.6125 13.0352 16.2254 11.9843 16.3283C11.2656 16.3965 10.3357 16.4091 7.40366 14.7608C3.65312 12.6535 1.58653 8.3208 1.41929 8.0358C1.26043 7.75179 0.0762311 5.71242 0.303446 3.77337C0.530661 1.83433 1.61916 1.00472 2.06083 0.645535C2.42354 0.350722 2.97641 0.261403 3.48966 0.321545C3.65571 0.341003 3.804 0.366941 3.93739 0.38942C4.32958 0.452499 4.52473 0.499338 4.71128 1.15645C4.94296 1.97979 5.50408 4.01122 5.57465 4.22153C5.6469 4.43205 5.71084 4.7135 5.54598 4.95958C5.38851 5.21509 5.26376 5.32204 5.03892 5.52856C4.81408 5.73508 4.60564 5.88873 4.37882 6.11214C4.17254 6.30543 3.94099 6.51116 4.12259 6.93482C4.30518 7.35004 4.9417 8.73793 5.98047 9.9144C7.32095 11.4327 8.48504 12.004 8.89808 12.2374C9.20596 12.4104 9.5955 12.4235 9.86169 12.1979C10.2001 11.9071 10.6341 11.41 11.0739 10.9222C11.387 10.5719 11.7313 10.5643 12.0711 10.7411C12.4185 10.9102 14.2239 12.0892 14.5949 12.333C14.9657 12.5785 15.2146 12.7036 15.2906 12.882C15.3649 13.0602 15.2729 13.8456 14.8411 14.7299Z" fill="#242527"/>
</svg>
