<svg width="24" height="23" viewBox="0 0 24 23" fill="none" xmlns="http://www.w3.org/2000/svg">
<path fill-rule="evenodd" clip-rule="evenodd" d="M12.2214 0H12.2271C18.4204 0 23.4568 5.0392 23.4568 11.2325C23.4568 17.4259 18.4204 22.4651 12.2271 22.4651C9.94263 22.4651 7.8239 21.7855 6.04775 20.6089L1.73024 21.9891L3.1301 17.8162C1.78359 15.9671 0.991699 13.6897 0.991699 11.2325C0.991699 5.0378 6.02809 0 12.2214 0ZM16.5588 17.4471C17.4167 17.2617 18.4922 16.6271 18.7632 15.8619C19.0342 15.0953 19.0342 14.4424 18.9556 14.3034C18.8921 14.1931 18.7419 14.1208 18.5178 14.0129C18.4595 13.9848 18.3961 13.9543 18.3279 13.9201C17.998 13.7558 16.3931 12.9625 16.0899 12.8572C15.7922 12.7449 15.5086 12.7842 15.2839 13.1015C15.2412 13.1613 15.1986 13.2213 15.1562 13.2809C14.8851 13.6621 14.6237 14.0297 14.4064 14.2641C14.2084 14.4747 13.8855 14.5013 13.6145 14.389C13.5849 14.3767 13.5511 14.363 13.5132 14.3477C13.0841 14.1744 12.1324 13.7901 10.9805 12.7645C10.0088 11.8996 9.34893 10.8227 9.15798 10.4998C8.9705 10.1758 9.13221 9.98583 9.28167 9.81027C9.28444 9.80701 9.2872 9.80377 9.28996 9.80053C9.38632 9.6813 9.47984 9.58202 9.57381 9.48224C9.64142 9.41047 9.70926 9.33845 9.77858 9.25856C9.78887 9.24669 9.79888 9.23518 9.80863 9.22397C9.95582 9.05473 10.0435 8.95395 10.1422 8.74326C10.2546 8.52563 10.1745 8.30098 10.0945 8.1353C10.0394 8.01927 9.69925 7.1939 9.40724 6.4854C9.28229 6.18225 9.16617 5.9005 9.08497 5.70486C8.86734 5.18395 8.70166 5.16429 8.3717 5.15025C8.36159 5.14975 8.35138 5.14923 8.34106 5.14871C8.23677 5.14343 8.1219 5.13762 7.99541 5.13762C7.56576 5.13762 7.11787 5.26398 6.84688 5.54058C6.83741 5.55025 6.82754 5.56029 6.8173 5.57071C6.47062 5.92329 5.69835 6.70869 5.69835 8.2743C5.69835 9.84295 6.81137 11.3611 7.0173 11.6419C7.02298 11.6497 7.02796 11.6565 7.03222 11.6623C7.04461 11.6786 7.06797 11.7124 7.10196 11.7616C7.52245 12.3706 9.57054 15.3366 12.6246 16.6018C15.2053 17.6717 15.9719 17.572 16.5588 17.4471Z" fill="#ABAEB8"/>
</svg>
