<svg width="23" height="23" viewBox="0 0 23 23" fill="none" xmlns="http://www.w3.org/2000/svg">
<path fill-rule="evenodd" clip-rule="evenodd" d="M22.7698 11.7673C22.7698 17.9709 17.7408 22.9998 11.5372 22.9998C5.33367 22.9998 0.304688 17.9709 0.304688 11.7673C0.304688 5.56372 5.33367 0.534742 11.5372 0.534742C17.7408 0.534742 22.7698 5.56372 22.7698 11.7673ZM16.2746 7.34827L5.44452 11.524C4.70224 11.8141 4.71534 12.2251 5.31722 12.416L8.08979 13.2809L14.5214 9.23159C14.82 9.03315 15.097 9.14548 14.8705 9.34485L9.66609 14.0466L9.46671 16.9044C9.75688 16.9044 9.88325 16.778 10.033 16.6282L11.3875 15.3234L14.1956 17.393C14.7076 17.6831 15.0736 17.5334 15.2103 16.9175L17.0543 8.23002L17.0534 8.23096C17.2162 7.47089 16.7772 7.16668 16.2746 7.34827Z" fill="#ABAEB8"/>
</svg>
