<svg width="97" height="104" viewBox="0 0 97 104" fill="none" xmlns="http://www.w3.org/2000/svg">
<path d="M13.465 0.956312C11.851 2.4041 10.3759 3.9997 9.05913 5.72225C7.31989 8.26307 5.88533 10.9995 4.78499 13.8753C-1.58727 31.8092 -1.84462 50.143 6.39528 67.2122C14.8412 84.5938 29.5024 95.163 49.2288 97.3954C59.0575 98.458 68.9991 97.582 78.4905 94.8171C80.2166 94.3231 81.9668 93.876 84.8337 93.1125C83.1164 96.7953 81.8176 99.6179 80.5105 102.431L81.5456 103.223C82.3621 102.859 83.1269 102.388 83.82 101.823C86.9495 98.5678 89.9985 95.2982 93.0533 91.9384C95.0046 89.8016 97.0855 87.4831 95.9958 84.3413C94.7652 81.0001 91.6112 80.0601 88.4943 79.9377C84.1999 79.8111 79.9018 79.9473 75.624 80.3457C74.7499 80.4153 73.9808 81.7871 73.1448 82.5204C73.8782 83.3564 74.552 84.6866 75.4456 84.8719C78.224 85.4612 81.0859 85.6032 83.965 85.9002C83.7874 86.2599 83.7493 86.5654 83.6099 86.6197C55.9207 97.6973 29.8585 93.3204 12.8192 69.5345C11.9807 68.3706 11.267 67.1217 10.6898 65.8084C2.49226 46.9849 2.15368 28.0685 10.3019 9.15486C11.5775 6.69377 13.0339 4.33071 14.6592 2.08512L13.465 0.956312Z" fill="white"/>
</svg>
