<svg width="24" height="23" viewBox="0 0 24 23" fill="none" xmlns="http://www.w3.org/2000/svg">
<path fill-rule="evenodd" clip-rule="evenodd" d="M11.9167 0H11.9224C18.1157 0 23.1521 5.0392 23.1521 11.2325C23.1521 17.4259 18.1157 22.4651 11.9224 22.4651C9.63795 22.4651 7.51921 21.7855 5.74306 20.6089L1.42555 21.9891L2.82541 17.8162C1.47891 15.9671 0.687012 13.6897 0.687012 11.2325C0.687012 5.0378 5.7234 0 11.9167 0ZM16.2541 17.4471C17.112 17.2617 18.1875 16.6271 18.4585 15.8619C18.7295 15.0953 18.7295 14.4424 18.6509 14.3034C18.5874 14.1931 18.4373 14.1208 18.2131 14.0129C18.1548 13.9848 18.0914 13.9543 18.0233 13.9201C17.6933 13.7558 16.0885 12.9625 15.7852 12.8572C15.4875 12.7449 15.2039 12.7842 14.9792 13.1015C14.9365 13.1613 14.8939 13.2213 14.8515 13.2809C14.5805 13.6621 14.319 14.0297 14.1017 14.2641C13.9037 14.4747 13.5808 14.5013 13.3098 14.389C13.2803 14.3767 13.2464 14.363 13.2085 14.3477C12.7794 14.1744 11.8277 13.7901 10.6758 12.7645C9.70415 11.8996 9.04424 10.8227 8.85329 10.4998C8.66581 10.1758 8.82752 9.98583 8.97698 9.81027C8.97975 9.80701 8.98252 9.80377 8.98527 9.80053C9.08163 9.6813 9.17515 9.58202 9.26913 9.48224C9.33673 9.41047 9.40457 9.33845 9.47389 9.25856C9.48418 9.24669 9.4942 9.23518 9.50395 9.22397C9.65113 9.05473 9.73878 8.95395 9.83754 8.74326C9.94987 8.52563 9.86983 8.30098 9.7898 8.1353C9.73474 8.01927 9.39456 7.1939 9.10255 6.4854C8.97761 6.18225 8.86148 5.9005 8.78028 5.70486C8.56265 5.18395 8.39697 5.16429 8.06701 5.15025C8.0569 5.14975 8.04669 5.14923 8.03637 5.14871C7.93208 5.14343 7.81721 5.13762 7.69072 5.13762C7.26108 5.13762 6.81318 5.26398 6.54219 5.54058C6.53273 5.55025 6.52286 5.56029 6.51261 5.57071C6.16593 5.92329 5.39367 6.70869 5.39367 8.2743C5.39367 9.84295 6.50668 11.3611 6.71262 11.6419C6.71829 11.6497 6.72328 11.6565 6.72753 11.6623C6.73992 11.6786 6.76328 11.7124 6.79727 11.7616C7.21776 12.3706 9.26585 15.3366 12.3199 16.6018C14.9006 17.6717 15.6672 17.572 16.2541 17.4471Z" fill="white"/>
</svg>
