<svg width="28" height="28" viewBox="0 0 28 28" fill="none" xmlns="http://www.w3.org/2000/svg">
<path fill-rule="evenodd" clip-rule="evenodd" d="M13.7938 0H13.8007C21.4082 0 27.5946 6.18981 27.5946 13.7973C27.5946 21.4048 21.4082 27.5946 13.8007 27.5946C10.9947 27.5946 8.39221 26.7599 6.21051 25.3146L0.907172 27.0099L2.62666 21.8842C0.97271 19.6129 0 16.8155 0 13.7973C0 6.18809 6.18636 0 13.7938 0ZM19.1216 21.4308C20.1754 21.2032 21.4965 20.4236 21.8293 19.4837C22.1622 18.542 22.1622 17.74 22.0656 17.5693C21.9876 17.4338 21.8032 17.345 21.5279 17.2125C21.4562 17.178 21.3784 17.1405 21.2947 17.0985C20.8894 16.8967 18.9181 15.9222 18.5456 15.7929C18.1799 15.6549 17.8315 15.7032 17.5556 16.093C17.5031 16.1665 17.4508 16.2401 17.3987 16.3133C17.0658 16.7815 16.7446 17.2332 16.4777 17.521C16.2345 17.7797 15.8378 17.8125 15.505 17.6745C15.4687 17.6594 15.4271 17.6426 15.3805 17.6238C14.8535 17.4109 13.6845 16.9388 12.2695 15.6791C11.076 14.6167 10.2655 13.2939 10.0309 12.8972C9.80061 12.4993 9.99925 12.2659 10.1828 12.0503L10.193 12.0383C10.3114 11.8919 10.4263 11.7699 10.5417 11.6473C10.6247 11.5592 10.7081 11.4707 10.7932 11.3726C10.8058 11.358 10.8181 11.3439 10.8301 11.3301C11.0109 11.1222 11.1186 10.9984 11.2399 10.7396C11.3779 10.4723 11.2796 10.1964 11.1813 9.99285C11.1136 9.85033 10.6958 8.8365 10.3371 7.96622C10.1836 7.59386 10.041 7.24778 9.94122 7.00746C9.6739 6.36761 9.47039 6.34347 9.06509 6.32622C9.05267 6.3256 9.04012 6.32497 9.02745 6.32432C8.89934 6.31784 8.75825 6.3107 8.60288 6.3107C8.07514 6.3107 7.52497 6.46592 7.19211 6.80568C7.18048 6.81756 7.16835 6.82989 7.15577 6.84268C6.72993 7.27577 5.78134 8.2405 5.78134 10.1636C5.78134 12.0904 7.14849 13.9551 7.40144 14.3002C7.40841 14.3097 7.41454 14.318 7.41977 14.3252C7.43499 14.3452 7.46367 14.3867 7.50543 14.4472C8.02193 15.1952 10.5377 18.8384 14.2891 20.3926C17.459 21.7068 18.4007 21.5843 19.1216 21.4308Z" fill="white"/>
</svg>
