<svg width="28" height="29" viewBox="0 0 28 29" fill="none" xmlns="http://www.w3.org/2000/svg">
<path fill-rule="evenodd" clip-rule="evenodd" d="M27.5946 14.3533C27.5946 21.9734 21.4173 28.1506 13.7973 28.1506C6.17726 28.1506 0 21.9734 0 14.3533C0 6.73328 6.17726 0.556019 13.7973 0.556019C21.4173 0.556019 27.5946 6.73328 27.5946 14.3533ZM19.6163 8.92529L6.31343 14.0544C5.40166 14.4109 5.41775 14.9156 6.15706 15.1502L9.56269 16.2126L17.4628 11.2386C17.8296 10.9949 18.1699 11.1329 17.8917 11.3778L11.4989 17.1531L11.254 20.6633C11.6104 20.6633 11.7657 20.5081 11.9496 20.3242L13.6133 18.7214L17.0627 21.2635C17.6916 21.62 18.1412 21.436 18.309 20.6794L20.5741 10.0084L20.5729 10.0095C20.773 9.07591 20.2337 8.70224 19.6163 8.92529Z" fill="white"/>
</svg>
