<?xml version="1.0" encoding="UTF-8"?>
<svg id="_Слой_2" data-name="Слой 2" xmlns="http://www.w3.org/2000/svg" viewBox="0 0 43 232">
  <defs>
    <style>
      .cls-1, .cls-2 {
        fill: #fff;
      }

      .cls-3 {
        fill: #e90041;
        stroke: #fff;
        stroke-miterlimit: 10;
      }

      .cls-2 {
        font-family: MicrosoftSansSerif, 'Microsoft Sans Serif';
        font-size: 18px;
      }
    </style>
  </defs>
  <g id="_Слой_1-2" data-name="Слой 1">
    <path class="cls-1" d="M21.5,1c11.3,0,20.5,9.2,20.5,20.5s-9.2,20.5-20.5,20.5S1,32.8,1,21.5,10.2,1,21.5,1m0-1C9.63,0,0,9.63,0,21.5s9.63,21.5,21.5,21.5,21.5-9.63,21.5-21.5S33.37,0,21.5,0h0Z"/>
    <path class="cls-1" d="M21.5,64c11.3,0,20.5,9.2,20.5,20.5s-9.2,20.5-20.5,20.5S1,95.8,1,84.5s9.2-20.5,20.5-20.5m0-1c-11.87,0-21.5,9.63-21.5,21.5s9.63,21.5,21.5,21.5,21.5-9.63,21.5-21.5-9.63-21.5-21.5-21.5h0Z"/>
    <path class="cls-1" d="M21.5,127c11.3,0,20.5,9.2,20.5,20.5s-9.2,20.5-20.5,20.5S1,158.8,1,147.5s9.2-20.5,20.5-20.5m0-1c-11.87,0-21.5,9.63-21.5,21.5s9.63,21.5,21.5,21.5,21.5-9.63,21.5-21.5-9.63-21.5-21.5-21.5h0Z"/>
    <path class="cls-1" d="M21.5,190c11.3,0,20.5,9.2,20.5,20.5s-9.2,20.5-20.5,20.5S1,221.8,1,210.5s9.2-20.5,20.5-20.5m0-1c-11.87,0-21.5,9.63-21.5,21.5s9.63,21.5,21.5,21.5,21.5-9.63,21.5-21.5-9.63-21.5-21.5-21.5h0Z"/>
    <line class="cls-3" x1="21.5" y1="43" x2="21.5" y2="63"/>
    <line class="cls-3" x1="21.5" y1="106" x2="21.5" y2="126"/>
    <line class="cls-3" x1="21.5" y1="169" x2="21.5" y2="189"/>
    <text class="cls-2" transform="translate(16.5 28.5)"><tspan x="0" y="0">1</tspan></text>
    <text class="cls-2" transform="translate(16.38 90.07)"><tspan x="0" y="0">2</tspan></text>
    <text class="cls-2" transform="translate(16.38 153.63)"><tspan x="0" y="0">3</tspan></text>
    <text class="cls-2" transform="translate(16.38 217.15)"><tspan x="0" y="0">4</tspan></text>
  </g>
</svg>